<svg width="60" height="80" viewBox="0 0 60 80" fill="none" xmlns="http://www.w3.org/2000/svg">
<path d="M30 80C46.57 80 60 70 60 52.5C60 45 57.5 32.5 47.5 22.5C48.75 30 41.25 32.5 41.25 32.5C45 20 35 2.5 20 0C21.785 10 22.5 20 10 30C3.75 35 0 43.645 0 52.5C0 70 13.43 80 30 80ZM30 75C21.715 75 15 70 15 61.25C15 57.5 16.25 51.25 21.25 46.25C20.625 50 25 52.5 25 52.5C23.125 46.25 27.5 36.25 35 35C34.105 40 33.75 45 40 50C43.125 52.5 45 56.82 45 61.25C45 70 38.285 75 30 75Z" fill="#0A603C"/>
</svg>
