<svg width="67" height="68" viewBox="0 0 67 68" fill="none" xmlns="http://www.w3.org/2000/svg">
<path d="M27.5901 2.71334C28.7167 0.180002 32.1867 0.0566683 33.5467 2.33333L33.7434 2.71334L37.2167 10.53C40.2497 17.3531 45.2934 23.0876 51.6734 26.9667L52.7467 27.5967L58.9134 31.0633C59.4036 31.3378 59.8174 31.7306 60.117 32.2059C60.4165 32.6812 60.5924 33.2239 60.6285 33.7845C60.6646 34.3452 60.5599 34.906 60.3238 35.4158C60.0877 35.9256 59.7277 36.3683 59.2767 36.7033L58.9167 36.9367L52.7467 40.4033C46.238 44.0645 41.0024 49.6258 37.7401 56.3433L37.2167 57.47L33.7434 65.2867C32.6167 67.82 29.1467 67.9433 27.7867 65.6667L27.5901 65.2867L24.1167 57.47C21.0838 50.6469 16.0401 44.9124 9.66008 41.0333L8.58674 40.4033L2.42008 36.9367C1.92984 36.6622 1.51608 36.2694 1.21651 35.7941C0.91694 35.3188 0.741082 34.7761 0.704963 34.2155C0.668844 33.6548 0.773613 33.094 1.00972 32.5842C1.24583 32.0744 1.60577 31.6318 2.05675 31.2967L2.41675 31.0633L8.58674 27.5967C15.0955 23.9355 20.3311 18.3742 23.5934 11.6567L24.1167 10.53L27.5901 2.71334ZM58.0701 1.07C59.7247 4.82867 62.5463 7.9542 66.1167 9.98333C66.6501 10.2833 66.6501 11.05 66.1167 11.35C62.5445 13.3794 59.7216 16.5063 58.0667 20.2667C58.0034 20.4082 57.9005 20.5284 57.7704 20.6128C57.6402 20.6971 57.4885 20.742 57.3334 20.742C57.1783 20.742 57.0266 20.6971 56.8964 20.6128C56.7663 20.5284 56.6634 20.4082 56.6001 20.2667C54.9446 16.5075 52.1217 13.3819 48.5501 11.3533C48.4295 11.2846 48.3293 11.1851 48.2596 11.0651C48.1899 10.9451 48.1532 10.8088 48.1532 10.67C48.1532 10.5312 48.1899 10.3949 48.2596 10.2749C48.3293 10.1549 48.4295 10.0554 48.5501 9.98667C52.1228 7.95637 54.9458 4.82831 56.6001 1.06667C56.6634 0.925106 56.7663 0.804895 56.8964 0.720544C57.0266 0.636193 57.1783 0.591309 57.3334 0.591309C57.4885 0.591309 57.6402 0.636193 57.7704 0.720544C57.9005 0.804895 58.0034 0.925106 58.0667 1.06667L58.0701 1.07Z" fill="#0A603C"/>
</svg>
