<svg width="34" height="34" viewBox="0 0 34 34" fill="none" xmlns="http://www.w3.org/2000/svg">
<path d="M18.1667 22.4999L22.5 18.1666C22.8334 17.8333 23 17.4444 23 16.9999C23 16.5555 22.8334 16.1666 22.5 15.8333L18.125 11.4583C17.8195 11.1527 17.4378 11.0066 16.98 11.0199C16.5212 11.0344 16.1389 11.1944 15.8334 11.4999C15.5278 11.8055 15.375 12.1944 15.375 12.6666C15.375 13.1388 15.5278 13.5277 15.8334 13.8333L17.3334 15.3333H11.9584C11.4862 15.3333 11.0973 15.4927 10.7917 15.8116C10.4862 16.1316 10.3334 16.5277 10.3334 16.9999C10.3334 17.4721 10.4934 17.8677 10.8134 18.1866C11.1323 18.5066 11.5278 18.6666 12 18.6666H17.3334L15.7917 20.2083C15.4862 20.5138 15.34 20.896 15.3534 21.3549C15.3678 21.8127 15.5278 22.1944 15.8334 22.4999C16.1389 22.8055 16.5278 22.9583 17 22.9583C17.4723 22.9583 17.8612 22.8055 18.1667 22.4999ZM17 33.6666C14.6945 33.6666 12.5278 33.2288 10.5 32.3533C8.47226 31.4788 6.70837 30.2916 5.20837 28.7916C3.70837 27.2916 2.52115 25.5277 1.64671 23.4999C0.771152 21.4721 0.333374 19.3055 0.333374 16.9999C0.333374 14.6944 0.771152 12.5277 1.64671 10.4999C2.52115 8.47214 3.70837 6.70825 5.20837 5.20825C6.70837 3.70825 8.47226 2.52047 10.5 1.64492C12.5278 0.770474 14.6945 0.333252 17 0.333252C19.3056 0.333252 21.4723 0.770474 23.5 1.64492C25.5278 2.52047 27.2917 3.70825 28.7917 5.20825C30.2917 6.70825 31.4789 8.47214 32.3534 10.4999C33.2289 12.5277 33.6667 14.6944 33.6667 16.9999C33.6667 19.3055 33.2289 21.4721 32.3534 23.4999C31.4789 25.5277 30.2917 27.2916 28.7917 28.7916C27.2917 30.2916 25.5278 31.4788 23.5 32.3533C21.4723 33.2288 19.3056 33.6666 17 33.6666ZM17 30.3333C20.6945 30.3333 23.8406 29.0349 26.4384 26.4383C29.035 23.8405 30.3334 20.6944 30.3334 16.9999C30.3334 13.3055 29.035 10.1594 26.4384 7.56159C23.8406 4.96492 20.6945 3.66659 17 3.66659C13.3056 3.66659 10.16 4.96492 7.56337 7.56159C4.9656 10.1594 3.66671 13.3055 3.66671 16.9999C3.66671 20.6944 4.9656 23.8405 7.56337 26.4383C10.16 29.0349 13.3056 30.3333 17 30.3333Z" fill="#1C9159"/>
</svg>
