<svg width="30" height="20" viewBox="0 0 30 20" fill="none" xmlns="http://www.w3.org/2000/svg">
<path d="M0 1.66656C0 0.746085 0.746192 -0.000106812 1.66667 -0.000106812H28.3333C29.2538 -0.000106812 30 0.746085 30 1.66656C30 2.58703 29.2538 3.33323 28.3333 3.33323H1.66667C0.746191 3.33323 0 2.58703 0 1.66656ZM0 9.99989C0 9.07942 0.746192 8.33323 1.66667 8.33323H28.3333C29.2538 8.33323 30 9.07942 30 9.99989C30 10.9204 29.2538 11.6666 28.3333 11.6666H1.66667C0.746191 11.6666 0 10.9204 0 9.99989ZM0 18.3332C0 17.4128 0.746192 16.6666 1.66667 16.6666H28.3333C29.2538 16.6666 30 17.4128 30 18.3332C30 19.2537 29.2538 19.9999 28.3333 19.9999H1.66667C0.746191 19.9999 0 19.2537 0 18.3332Z" fill="#1C9159"/>
</svg>
