<svg width="24" height="24" viewBox="0 0 24 24" fill="none" xmlns="http://www.w3.org/2000/svg">
<path d="M22.9595 3.39043C23.3501 2.99991 23.3501 2.36675 22.9595 1.97622L22.0238 1.04043C21.6332 0.649911 21.0001 0.649911 20.6095 1.04043L12 9.64999L3.39042 1.04044C2.9999 0.649911 2.36673 0.649911 1.97621 1.04044L1.04042 1.97622C0.649895 2.36675 0.649896 2.99991 1.04042 3.39043L9.64998 12L1.04042 20.6096C0.649895 21.0001 0.649895 21.6332 1.04042 22.0238L1.97621 22.9596C2.36673 23.3501 2.9999 23.3501 3.39042 22.9596L12 14.35L20.6095 22.9596C21.0001 23.3501 21.6332 23.3501 22.0238 22.9596L22.9595 22.0238C23.3501 21.6332 23.3501 21.0001 22.9595 20.6096L14.35 12L22.9595 3.39043Z" fill="#1C9159"/>
</svg>
